<svg width="24" height="23" viewBox="0 0 24 23" fill="none" xmlns="http://www.w3.org/2000/svg">
<path d="M22.8875 20.3088L18.6375 16.2125C20.0087 14.5238 20.7528 12.4385 20.75 10.2917C20.75 8.37979 20.1635 6.51083 19.0647 4.92116C17.9659 3.33148 16.4041 2.09248 14.5768 1.36084C12.7496 0.629188 10.7389 0.437756 8.7991 0.810747C6.85929 1.18374 5.07746 2.1044 3.67894 3.45631C2.28041 4.80821 1.328 6.53065 0.942152 8.4058C0.556299 10.2809 0.754333 12.2246 1.51121 13.9909C2.26809 15.7573 3.54981 17.267 5.1943 18.3292C6.83879 19.3914 8.77219 19.9583 10.75 19.9583C12.9708 19.961 15.1281 19.2418 16.875 17.9163L21.1125 22.0246C21.2287 22.1378 21.367 22.2277 21.5193 22.2891C21.6716 22.3504 21.835 22.382 22 22.382C22.165 22.382 22.3284 22.3504 22.4807 22.2891C22.633 22.2277 22.7713 22.1378 22.8875 22.0246C23.0047 21.9123 23.0977 21.7786 23.1611 21.6314C23.2246 21.4841 23.2573 21.3262 23.2573 21.1667C23.2573 21.0072 23.2246 20.8492 23.1611 20.702C23.0977 20.5547 23.0047 20.4211 22.8875 20.3088ZM3.25 10.2917C3.25 8.85776 3.68987 7.45604 4.51398 6.26379C5.33809 5.07153 6.50943 4.14228 7.87988 3.59354C9.25033 3.04481 10.7583 2.90123 12.2132 3.18098C13.668 3.46072 15.0044 4.15122 16.0533 5.16515C17.1022 6.17908 17.8165 7.4709 18.1059 8.87727C18.3953 10.2836 18.2468 11.7414 17.6791 13.0661C17.1114 14.3909 16.1502 15.5232 14.9168 16.3198C13.6834 17.1165 12.2334 17.5417 10.75 17.5417C8.76088 17.5417 6.85323 16.7778 5.4467 15.4182C4.04018 14.0586 3.25 12.2145 3.25 10.2917Z" fill="white"/>
</svg>
