<svg width="20" height="25" viewBox="0 0 20 25" fill="none" xmlns="http://www.w3.org/2000/svg">
<g filter="url(#filter0_d_18_20)">
<path d="M10 16C9.80532 16.0004 9.61662 15.9191 9.46669 15.77L4.46669 10.77C4.29651 10.6002 4.18949 10.3563 4.16918 10.0919C4.14886 9.82747 4.21691 9.56419 4.35836 9.35997C4.49981 9.15575 4.70307 9.02733 4.92342 9.00295C5.14378 8.97857 5.36318 9.06023 5.53336 9.22997L10 13.71L14.4667 9.38997C14.5519 9.3069 14.65 9.24487 14.7553 9.20744C14.8606 9.17001 14.971 9.15792 15.0802 9.17186C15.1894 9.18579 15.2952 9.22549 15.3916 9.28866C15.4879 9.35184 15.5729 9.43724 15.6417 9.53997C15.718 9.64279 15.7758 9.76342 15.8115 9.89429C15.8471 10.0252 15.8599 10.1635 15.8489 10.3005C15.838 10.4376 15.8036 10.5705 15.7478 10.6908C15.6921 10.8112 15.6162 10.9164 15.525 11L10.525 15.83C10.3708 15.9555 10.1859 16.0153 10 16Z" fill="white"/>
</g>
<defs>
<filter id="filter0_d_18_20" x="0.165649" y="8.99872" width="19.6871" height="15.0036" filterUnits="userSpaceOnUse" color-interpolation-filters="sRGB">
<feFlood flood-opacity="0" result="BackgroundImageFix"/>
<feColorMatrix in="SourceAlpha" type="matrix" values="0 0 0 0 0 0 0 0 0 0 0 0 0 0 0 0 0 0 127 0" result="hardAlpha"/>
<feOffset dy="4"/>
<feGaussianBlur stdDeviation="2"/>
<feComposite in2="hardAlpha" operator="out"/>
<feColorMatrix type="matrix" values="0 0 0 0 0 0 0 0 0 0 0 0 0 0 0 0 0 0 0.25 0"/>
<feBlend mode="normal" in2="BackgroundImageFix" result="effect1_dropShadow_18_20"/>
<feBlend mode="normal" in="SourceGraphic" in2="effect1_dropShadow_18_20" result="shape"/>
</filter>
</defs>
</svg>
