<svg width="25" height="24" viewBox="0 0 25 24" fill="none" xmlns="http://www.w3.org/2000/svg">
<path d="M21.3749 15.21L19.4999 13.4V8.94002C19.5249 7.28384 18.9248 5.67493 17.8105 4.41035C16.6962 3.14578 15.1429 2.31095 13.4374 2.06002C12.4477 1.93488 11.4415 2.01383 10.486 2.29159C9.5305 2.56935 8.64772 3.03954 7.89652 3.67078C7.14533 4.30202 6.543 5.07979 6.12973 5.95221C5.71646 6.82463 5.50176 7.77163 5.49993 8.73002V13.4L3.62493 15.21C3.38942 15.4399 3.22971 15.7313 3.16577 16.0478C3.10183 16.3643 3.13649 16.6919 3.26543 16.9897C3.39437 17.2874 3.61186 17.542 3.89072 17.7217C4.16957 17.9014 4.49742 17.9982 4.83327 18H8.33327V18.34C8.38192 19.3552 8.8478 20.3105 9.62882 20.9965C10.4098 21.6826 11.4423 22.0434 12.4999 22C13.5576 22.0434 14.59 21.6826 15.3711 20.9965C16.1521 20.3105 16.6179 19.3552 16.6666 18.34V18H20.1666C20.5025 17.9982 20.8303 17.9014 21.1092 17.7217C21.388 17.542 21.6055 17.2874 21.7344 16.9897C21.8634 16.6919 21.898 16.3643 21.8341 16.0478C21.7702 15.7313 21.6104 15.4399 21.3749 15.21ZM14.5833 18.34C14.5255 18.821 14.2766 19.2621 13.8886 19.5713C13.5005 19.8805 13.003 20.0341 12.4999 20C11.9968 20.0341 11.4994 19.8805 11.1113 19.5713C10.7232 19.2621 10.4744 18.821 10.4166 18.34V18H14.5833V18.34Z" fill="#FFF5F7"/>
</svg>
